<svg width="65" height="65" viewBox="0 0 65 65" fill="none" xmlns="http://www.w3.org/2000/svg">
<g filter="url(#filter0_di_1_325)">
<path fill-rule="evenodd" clip-rule="evenodd" d="M7.8338 22.9744C7 24.7927 7 27.1729 7 31.9333V44.4C7 49.1604 7 51.5407 7.8338 53.3589C8.56723 54.9583 9.73753 56.2586 11.177 57.0736C12.8134 58 14.9556 58 19.24 58H45.76C50.0444 58 52.1866 58 53.823 57.0736C55.2625 56.2586 56.4328 54.9583 57.1662 53.3589C58 51.5407 58 49.1604 58 44.4V31.9333C58 27.1729 58 24.7927 57.1662 22.9744C56.4328 21.375 55.2625 20.0747 53.823 19.2598C52.1866 18.3333 50.0444 18.3333 45.76 18.3333H19.24C14.9556 18.3333 12.8134 18.3333 11.177 19.2598C9.73753 20.0747 8.56723 21.375 7.8338 22.9744ZM34.54 36.75H42.7H47.035C47.7491 36.75 48.1061 36.75 48.3788 36.9044C48.6187 37.0402 48.8138 37.257 48.936 37.5235C49.075 37.8266 49.075 38.2233 49.075 39.0167V45.8167C49.075 46.6101 49.075 47.0068 48.936 47.3098C48.8138 47.5764 48.6187 47.7931 48.3788 47.9289C48.1061 48.0833 47.7491 48.0833 47.035 48.0833H42.7H34.54C33.8259 48.0833 33.4689 48.0833 33.1962 47.9289C32.9563 47.7931 32.7612 47.5764 32.639 47.3098C32.5 47.0068 32.5 46.6101 32.5 45.8167V39.0167C32.5 38.2233 32.5 37.8266 32.639 37.5235C32.7612 37.257 32.9563 37.0402 33.1962 36.9044C33.4689 36.75 33.8259 36.75 34.54 36.75Z" fill="#264151"/>
<path d="M42.7 36.75H34.54C33.8259 36.75 33.4689 36.75 33.1962 36.9044C32.9563 37.0402 32.7612 37.257 32.639 37.5235C32.5 37.8266 32.5 38.2233 32.5 39.0167V45.8167C32.5 46.6101 32.5 47.0068 32.639 47.3098C32.7612 47.5764 32.9563 47.7931 33.1962 47.9289C33.4689 48.0833 33.8259 48.0833 34.54 48.0833H42.7H47.035C47.7491 48.0833 48.1061 48.0833 48.3788 47.9289C48.6187 47.7931 48.8138 47.5764 48.936 47.3098C49.075 47.0068 49.075 46.6101 49.075 45.8167V39.0167C49.075 38.2233 49.075 37.8266 48.936 37.5235C48.8138 37.257 48.6187 37.0402 48.3788 36.9044C48.1061 36.75 47.7491 36.75 47.035 36.75H42.7Z" fill="#FE7F2D"/>
<path d="M22.3 58V18.3333C22.3 15.6984 22.3 14.381 22.5607 13.3C23.268 10.3668 25.3301 8.0756 27.97 7.28963C28.9429 7 30.1286 7 32.5 7C34.8714 7 36.0571 7 37.03 7.28963C39.6699 8.0756 41.732 10.3668 42.4393 13.3C42.7 14.381 42.7 15.6984 42.7 18.3333V36.75M42.7 36.75H34.54M42.7 36.75H47.035M42.7 48.0833V58M42.7 48.0833H47.035M42.7 48.0833H34.54M34.54 48.0833H47.035M34.54 48.0833C33.8259 48.0833 33.4689 48.0833 33.1962 47.9289C32.9563 47.7931 32.7612 47.5764 32.639 47.3098C32.5 47.0068 32.5 46.6101 32.5 45.8167V39.0167C32.5 38.2233 32.5 37.8266 32.639 37.5235C32.7612 37.2569 32.9563 37.0402 33.1962 36.9044C33.4689 36.75 33.8259 36.75 34.54 36.75M47.035 48.0833C47.7491 48.0833 48.1061 48.0833 48.3788 47.9289C48.6187 47.7931 48.8138 47.5764 48.936 47.3098C49.075 47.0068 49.075 46.6101 49.075 45.8167V39.0167C49.075 38.2233 49.075 37.8266 48.936 37.5235C48.8138 37.2569 48.6187 37.0402 48.3788 36.9044C48.1061 36.75 47.7491 36.75 47.035 36.75M47.035 36.75H34.54M19.24 58H45.76C50.0444 58 52.1866 58 53.823 57.0736C55.2625 56.2586 56.4328 54.9583 57.1662 53.3589C58 51.5407 58 49.1604 58 44.4V31.9333C58 27.1729 58 24.7927 57.1662 22.9744C56.4328 21.375 55.2625 20.0747 53.823 19.2598C52.1866 18.3333 50.0444 18.3333 45.76 18.3333H19.24C14.9556 18.3333 12.8134 18.3333 11.177 19.2598C9.73753 20.0747 8.56723 21.375 7.8338 22.9744C7 24.7927 7 27.1729 7 31.9333V44.4C7 49.1604 7 51.5407 7.8338 53.3589C8.56723 54.9583 9.73753 56.2586 11.177 57.0736C12.8134 58 14.9556 58 19.24 58Z" stroke="#1D3747" stroke-width="2" stroke-linecap="round" stroke-linejoin="round"/>
</g>
<defs>
<filter id="filter0_di_1_325" x="0" y="-6.10352e-05" width="65" height="65.0001" filterUnits="userSpaceOnUse" color-interpolation-filters="sRGB">
<feFlood flood-opacity="0" result="BackgroundImageFix"/>
<feColorMatrix in="SourceAlpha" type="matrix" values="0 0 0 0 0 0 0 0 0 0 0 0 0 0 0 0 0 0 127 0" result="hardAlpha"/>
<feOffset/>
<feGaussianBlur stdDeviation="3"/>
<feComposite in2="hardAlpha" operator="out"/>
<feColorMatrix type="matrix" values="0 0 0 0 0 0 0 0 0 0 0 0 0 0 0 0 0 0 0.25 0"/>
<feBlend mode="normal" in2="BackgroundImageFix" result="effect1_dropShadow_1_325"/>
<feBlend mode="normal" in="SourceGraphic" in2="effect1_dropShadow_1_325" result="shape"/>
<feColorMatrix in="SourceAlpha" type="matrix" values="0 0 0 0 0 0 0 0 0 0 0 0 0 0 0 0 0 0 127 0" result="hardAlpha"/>
<feOffset/>
<feGaussianBlur stdDeviation="3.5"/>
<feComposite in2="hardAlpha" operator="arithmetic" k2="-1" k3="1"/>
<feColorMatrix type="matrix" values="0 0 0 0 0 0 0 0 0 0 0 0 0 0 0 0 0 0 0.25 0"/>
<feBlend mode="normal" in2="shape" result="effect2_innerShadow_1_325"/>
</filter>
</defs>
</svg>
