<svg width="20" height="20" viewBox="0 0 20 20" fill="none" xmlns="http://www.w3.org/2000/svg">
<path fill-rule="evenodd" clip-rule="evenodd" d="M8.23948 2.64336C5.18986 2.64336 2.71765 5.04799 2.71765 8.01425C2.71765 10.9805 5.18986 13.3851 8.23948 13.3851C9.76547 13.3851 11.1447 12.7848 12.1456 11.8105C13.1454 10.8372 13.7613 9.49697 13.7613 8.01425C13.7613 5.04799 11.2891 2.64336 8.23948 2.64336ZM0 8.01425C0 3.5881 3.68894 0 8.23948 0C12.79 0 16.479 3.5881 16.479 8.01425C16.479 9.74864 15.9114 11.3557 14.9487 12.6671L19.5353 17.1284C20.066 17.6445 20.066 18.4814 19.5353 18.9975C19.0047 19.5137 18.1443 19.5137 17.6137 18.9975L13.0277 14.5369C11.6786 15.4752 10.0247 16.0285 8.23948 16.0285C3.68894 16.0285 0 12.4404 0 8.01425Z" fill="#1D3747"/>
</svg>
