<svg width="25" height="25" viewBox="0 0 25 25" fill="none" xmlns="http://www.w3.org/2000/svg">
<path fill-rule="evenodd" clip-rule="evenodd" d="M14.6419 2.6819C14.0957 0.439366 10.9043 0.439366 10.3581 2.6819C10.2765 3.01888 10.1165 3.33184 9.89118 3.59532C9.66582 3.8588 9.38143 4.06535 9.06117 4.19816C8.7409 4.33097 8.39381 4.38629 8.04812 4.35962C7.70244 4.33295 7.36793 4.22504 7.07183 4.04467C5.09952 2.8429 2.84257 5.09981 4.04436 7.07209C4.82063 8.34574 4.13205 10.0075 2.68301 10.3597C0.438998 10.9045 0.438998 14.0973 2.68301 14.6407C3.02008 14.7223 3.3331 14.8824 3.59658 15.1079C3.86006 15.3335 4.06655 15.618 4.19924 15.9385C4.33193 16.2589 4.38706 16.6061 4.36015 16.9519C4.33323 17.2977 4.22503 17.6322 4.04436 17.9283C2.84257 19.9005 5.09952 22.1575 7.07183 20.9557C7.36788 20.775 7.70241 20.6668 8.04819 20.6399C8.39397 20.613 8.74121 20.6681 9.06165 20.8008C9.38209 20.9335 9.66666 21.14 9.89219 21.4035C10.1177 21.6669 10.2778 21.98 10.3595 22.317C10.9043 24.561 14.0971 24.561 14.6405 22.317C14.7224 21.9801 14.8827 21.6673 15.1083 21.404C15.3339 21.1407 15.6184 20.9344 15.9387 20.8017C16.2591 20.6691 16.6062 20.6139 16.9519 20.6406C17.2976 20.6674 17.6321 20.7753 17.9282 20.9557C19.9005 22.1575 22.1574 19.9005 20.9556 17.9283C20.7753 17.6322 20.6673 17.2977 20.6406 16.952C20.6138 16.6063 20.669 16.2592 20.8017 15.9389C20.9343 15.6185 21.1407 15.334 21.404 15.1084C21.6673 14.8829 21.9801 14.7226 22.317 14.6407C24.561 14.0958 24.561 10.9031 22.317 10.3597C21.9799 10.278 21.6669 10.1179 21.4034 9.89241C21.1399 9.66688 20.9334 9.38232 20.8008 9.06188C20.6681 8.74145 20.6129 8.39421 20.6399 8.04844C20.6668 7.70267 20.775 7.36814 20.9556 7.07209C22.1574 5.09981 19.9005 2.8429 17.9282 4.04467C17.6321 4.22534 17.2976 4.33354 16.9518 4.36045C16.606 4.38737 16.2588 4.33224 15.9384 4.19955C15.6179 4.06687 15.3333 3.86038 15.1078 3.5969C14.8823 3.33342 14.7222 3.02041 14.6405 2.68334L14.6419 2.6819Z" stroke="#1D3747" stroke-width="2"/>
<path d="M15.0556 12.5C15.0556 13.9114 13.9114 15.0556 12.5 15.0556C11.0886 15.0556 9.94444 13.9114 9.94444 12.5C9.94444 11.0886 11.0886 9.94444 12.5 9.94444C13.9114 9.94444 15.0556 11.0886 15.0556 12.5Z" stroke="#1D3747" stroke-width="2"/>
</svg>
